<svg xmlns="http://www.w3.org/2000/svg" width="128" height="128" viewBox="0 0 128 128">
  <defs>
    <linearGradient id="bgGrad" x1="0%" y1="0%" x2="100%" y2="100%">
      <stop offset="0%" style="stop-color:#1a1a2e;stop-opacity:1" />
      <stop offset="100%" style="stop-color:#16213e;stop-opacity:1" />
    </linearGradient>
  </defs>
  <rect width="128" height="128" fill="url(#bgGrad)"/>
  <circle cx="64" cy="64" r="60" fill="none" stroke="#ffffff" stroke-width="2" opacity="0.3"/>
  <!-- Lion head constellation -->
  <circle cx="40" cy="45" r="2.5" fill="#ffd700"/>
  <circle cx="50" cy="38" r="2.5" fill="#ffd700"/>
  <circle cx="60" cy="40" r="2.5" fill="#ffd700"/>
  <circle cx="70" cy="42" r="3" fill="#ffed4e"/>
  <circle cx="75" cy="50" r="2.5" fill="#ffd700"/>
  <!-- Mane -->
  <circle cx="55" cy="50" r="2.5" fill="#ffd700"/>
  <!-- Body -->
  <circle cx="60" cy="70" r="3" fill="#ffed4e"/>
  <circle cx="70" cy="72" r="3" fill="#ffed4e"/>
  <!-- Connections -->
  <line x1="40" y1="45" x2="50" y2="38" stroke="#ffd700" stroke-width="1.5" opacity="0.6"/>
  <line x1="50" y1="38" x2="60" y2="40" stroke="#ffd700" stroke-width="1.5" opacity="0.6"/>
  <line x1="60" y1="40" x2="70" y2="42" stroke="#ffd700" stroke-width="1.5" opacity="0.6"/>
  <line x1="70" y1="42" x2="75" y2="50" stroke="#ffd700" stroke-width="1.5" opacity="0.6"/>
  <line x1="55" y1="50" x2="60" y2="40" stroke="#ffd700" stroke-width="1" opacity="0.5"/>
  <line x1="70" y1="42" x2="60" y2="70" stroke="#ffed4e" stroke-width="1.5" opacity="0.5"/>
  <line x1="60" y1="70" x2="70" y2="72" stroke="#ffed4e" stroke-width="1" opacity="0.5"/>
  <!-- Leo symbol -->
  <text x="64" y="108" font-size="36" font-weight="bold" text-anchor="middle" fill="#ffd700">♌</text>
</svg>